<svg width="70" height="71" viewBox="0 0 70 71" fill="none" xmlns="http://www.w3.org/2000/svg">
<path fill-rule="evenodd" clip-rule="evenodd" d="M45.3829 0.729095C41.1862 1.32847 37.2548 4.04012 35.1009 7.82125C34.7801 8.38436 33.8845 10.5405 33.1106 12.6127L31.7037 16.3803H31.1018H30.4998V15.5977C30.4998 14.9549 30.4379 14.7531 30.1535 14.4687C29.8248 14.1397 29.7229 14.1224 28.1432 14.1238C26.3039 14.1255 23.1997 14.4281 21.702 14.7517C19.9846 15.1228 18.9214 15.9918 18.3648 17.4794C17.6165 19.4785 18.5228 21.7394 20.4521 22.6872C21.2436 23.0762 21.3197 23.0853 24.3056 23.1545L27.3516 23.2251L25.6677 25.2714C23.7705 27.5769 22.8466 28.8824 22.1881 30.1877C21.8264 30.9047 21.6898 31.0605 21.4984 30.975C21.3671 30.9165 20.72 30.6757 20.0605 30.44C18.9642 30.0484 18.7041 30.011 17.0274 30.0055C14.9407 29.9984 13.8582 30.2544 12.0899 31.1735C10.7194 31.8856 8.72997 33.8735 8.03928 35.221C6.66636 37.8992 6.45603 40.576 7.39373 43.4336L7.69012 44.337L5.8521 46.2004C4.84103 47.2253 3.9053 48.2773 3.77269 48.5384C3.40111 49.2692 3.33805 50.3733 3.61963 51.2212L3.86072 51.9475L3.30095 52.8344C1.96401 54.952 0.977348 57.357 0.435066 59.82C0.170979 61.0193 0.125413 61.7697 0.0667271 65.8813L0 70.5739H1.12829H2.25673L2.32684 65.9519C2.40133 61.0316 2.45296 60.587 3.22364 58.2251C3.63613 56.9607 4.62336 54.8992 5.25889 53.9752C5.63879 53.4229 5.71159 53.3785 6.03648 53.502C6.56987 53.705 7.3682 53.6676 8.15002 53.4032C8.71769 53.2113 9.20115 52.8184 10.786 51.2606L12.7268 49.353L13.6074 49.6553C14.7168 50.0362 15.9307 50.2513 16.9704 50.2513C17.7411 50.2513 19.5715 49.9598 20.0957 49.7537C20.3233 49.6642 20.3427 49.8039 20.345 51.5416C20.3478 53.637 20.5656 54.9397 21.1137 56.1372L21.4712 56.9185V62.2832C21.4712 66.0827 21.5213 67.8175 21.6427 68.2289C21.8717 69.0041 23.0403 70.1732 23.8152 70.4022C24.2232 70.5228 25.8829 70.5739 29.3977 70.5739C35.2058 70.5739 35.3311 70.5535 36.3259 69.4465C37.1604 68.5182 37.2713 68.0399 37.2713 65.371C37.2713 63.1944 37.2835 63.094 37.5511 63.094C37.7051 63.094 38.8635 63.1876 40.1257 63.3019C44.492 63.6973 48.3918 63.7992 59.1727 63.7994L70 63.7997V62.6833V61.567L57.3388 61.5022C42.7674 61.4276 40.9669 61.3305 33.0391 60.1923C27.4862 59.3949 26.2751 58.9962 24.706 57.4489C23.7063 56.4632 23.1725 55.5279 22.8156 54.138C22.5649 53.1612 22.5007 48.4166 22.7381 48.4166C23.0186 48.4166 24.8465 46.5471 25.4058 45.6881C26.3932 44.1721 27.1141 41.9468 27.1141 40.4151C27.1141 39.971 27.1478 39.9266 27.4315 39.9958C28.0299 40.1422 33.5323 40.7874 35.3991 40.9301C36.4255 41.0087 38.5948 41.1156 40.2198 41.1679L43.1741 41.2629L43.6242 40.8127C44.0543 40.3824 44.0698 40.3283 43.9767 39.5836C43.6335 36.8355 42.2876 34.1253 40.1734 31.9244C38.9121 30.6113 37.7939 29.8093 36.1156 29.014C34.0358 28.0284 32.8879 27.7974 29.5415 27.6911L26.6789 27.6001L29.4477 24.2141L32.2165 20.8283L33.767 20.5803C37.8584 19.9259 44.099 19.2571 49.3329 18.912C50.652 18.8249 55.8416 18.7206 60.8656 18.68L70 18.606V17.476V16.3462L60.7245 16.4205C51.5047 16.4943 48.3766 16.6243 42.9141 17.1603C40.2776 17.4192 36.5361 17.8763 34.8117 18.1505C34.1183 18.2607 33.5202 18.32 33.4825 18.2822C33.3961 18.1958 36.0125 11.1647 36.6501 9.76982C37.9045 7.02543 40.3028 4.77922 43.1963 3.63861C45.2133 2.84363 45.4306 2.83192 58.236 2.83192H70V1.70288V0.573853L58.1147 0.59107C51.5778 0.600526 45.8484 0.662623 45.3829 0.729095ZM28.2426 17.1629C28.2426 17.8057 28.3046 18.0075 28.589 18.2919C28.8861 18.5893 29.0662 18.6384 29.8586 18.6384C30.5449 18.6384 30.7819 18.6879 30.7819 18.8312C30.7819 18.9371 30.4486 19.4414 30.0413 19.9517L29.3007 20.8796L25.5623 20.8875C22.0724 20.8949 21.7932 20.8767 21.3641 20.6149C20.0959 19.8414 20.0276 18.0922 21.2347 17.301C21.8429 16.9022 24.8899 16.4434 27.2199 16.3995L28.2426 16.3803V17.1629ZM33.2951 30.334C35.3271 30.9373 37.3919 32.1972 38.7263 33.6481C39.9291 34.956 41.1276 37.11 41.4271 38.5023L41.5259 38.9609L40.915 38.9588C38.658 38.9514 32.426 38.4465 29.7944 38.058L28.5953 37.881L29.2301 37.6849C30.0623 37.4276 31.2215 36.2835 31.4568 35.4869C31.8476 34.1637 31.5721 33.1088 30.5751 32.1114C29.1441 30.6799 27.342 30.6835 25.8966 32.1206C25.4518 32.5627 25.1336 33.0193 25.0708 33.3052L24.9688 33.7704L24.2839 33.0955L23.599 32.4206L24.2492 31.1612L24.8994 29.9017L28.5814 29.9647C31.8342 30.0203 32.3834 30.0633 33.2951 30.334ZM49.7561 30.0599C48.4865 30.3672 47.3122 31.3291 46.729 32.5396C46.3182 33.3921 46.1694 35.6057 46.4363 36.8919C46.9789 39.5066 49.2016 41.7137 51.7863 42.204C52.2514 42.2923 55.9266 42.348 61.2727 42.348H70V41.219V40.09H68.8714H67.7428V38.3964V36.7029H68.8714H70V35.5739V34.4448H68.8714H67.7428V33.3158V32.1868H68.8714H70V31.0577V29.9287L60.0897 29.9431C54.6391 29.9511 49.9889 30.0036 49.7561 30.0599ZM19.3653 32.6001C21.0284 33.1169 22.8416 34.5326 23.6946 35.9803C25.0866 38.3429 25.1994 41.088 24.0064 43.5667C22.8145 46.0432 20.3734 47.71 17.5942 47.9449C16.608 48.0283 14.7718 47.8007 14.6343 47.578C14.6001 47.5228 14.9659 47.0931 15.4471 46.6231L16.322 45.7687L17.3581 45.6884C19.4098 45.5295 21.0738 44.3915 22.0023 42.5118C22.4996 41.5052 22.5292 41.3696 22.5292 40.0973C22.5292 38.8766 22.487 38.6602 22.0827 37.8065C21.4614 36.4944 20.6617 35.6773 19.3777 35.0425C18.3704 34.5445 18.2371 34.5154 16.9569 34.5154C15.6766 34.5154 15.5433 34.5445 14.5361 35.0425C12.6571 35.9714 11.5195 37.636 11.3607 39.6886L11.2804 40.7251L10.4264 41.6003C9.95659 42.0817 9.52547 42.4467 9.4682 42.4113C9.41106 42.376 9.28748 41.8915 9.19367 41.3347C8.51624 37.3171 11.2368 33.3121 15.264 32.3984C16.4301 32.134 18.1345 32.2178 19.3653 32.6001ZM51.9428 33.3158V34.4448H50.2499C48.4107 34.4448 48.4048 34.4417 48.7076 33.6425C49.069 32.6882 49.8837 32.2007 51.1316 32.1923L51.9428 32.1868V33.3158ZM56.4571 33.3158V34.4448H55.3285H54.1999V33.3158V32.1868H55.3285H56.4571V33.3158ZM60.9714 33.3158V34.4448H59.8428H58.7142V33.3158V32.1868H59.8428H60.9714V33.3158ZM65.4857 33.3158V34.4448H64.3571H63.2285V33.3158V32.1868H64.3571H65.4857V33.3158ZM29.0249 33.6623C29.7247 34.3623 29.2289 35.5739 28.2426 35.5739C27.9678 35.5739 27.6786 35.4458 27.4604 35.2274C27.242 35.0091 27.1141 34.7197 27.1141 34.4448C27.1141 34.1699 27.242 33.8806 27.4604 33.6623C27.6786 33.4438 27.9678 33.3158 28.2426 33.3158C28.5175 33.3158 28.8066 33.4438 29.0249 33.6623ZM34.0901 33.5144C32.6668 34.1345 32.3306 36.0273 33.4457 37.1429C35.0306 38.7285 37.6279 37.3083 37.2109 35.084C36.9613 33.7537 35.3736 32.9551 34.0901 33.5144ZM18.1029 36.9204C18.4425 37.04 18.9879 37.4005 19.3149 37.7213C20.6209 39.0022 20.6829 40.9421 19.4595 42.2528C19.1305 42.6053 18.9492 42.7287 19.0083 42.5597C19.2429 41.8894 19.2396 40.9454 19 40.2241C18.3979 38.4104 16.3725 37.4321 14.4881 38.0447C14.3132 38.1016 14.4311 37.9262 14.7983 37.5832C15.7212 36.7214 16.8793 36.4892 18.1029 36.9204ZM51.9428 38.3223V39.9418L51.5891 39.8073C50.8823 39.5385 50.4508 39.2596 49.9189 38.7275C49.3871 38.1955 49.1083 37.7637 48.8396 37.0567L48.7052 36.7029H50.324H51.9428V38.3223ZM56.4571 38.3964V40.09H55.3285H54.1999V38.3964V36.7029H55.3285H56.4571V38.3964ZM60.9714 38.3964V40.09H59.8428H58.7142V38.3964V36.7029H59.8428H60.9714V38.3964ZM65.4857 38.3964V40.09H64.3571H63.2285V38.3964V36.7029H64.3571H65.4857V38.3964ZM16.5445 40.5025C16.8341 40.7924 16.9569 41.054 16.9569 41.3823C16.9569 41.8078 16.5321 42.2744 12.1934 46.6149C7.85461 50.9554 7.38823 51.3803 6.9629 51.3803C6.3213 51.3803 5.6711 50.7298 5.6711 50.088C5.6711 49.6625 6.09587 49.1959 10.4345 44.8553C14.7734 40.5149 15.2397 40.09 15.6651 40.09C15.9932 40.09 16.2548 40.2128 16.5445 40.5025ZM35.4802 43.6886C35.3102 43.8077 35.046 44.298 34.8756 44.81C34.4127 46.2014 33.7416 46.8642 32.7953 46.8642C32.576 46.8642 32.271 46.9521 32.1176 47.0596C31.8805 47.2257 31.4364 47.2266 29.1589 47.065C25.5341 46.8077 25.6085 46.805 25.2032 47.2106L24.8569 47.557V50.8547C24.8569 54.6874 24.951 55.1511 25.9262 56.1268C26.3521 56.553 26.748 56.7906 27.2797 56.9398C27.785 57.0815 30.8859 57.3189 36.749 57.6644C44.79 58.1381 45.4937 58.1606 45.8106 57.9528C45.9997 57.8289 46.1949 57.5654 46.2447 57.3674C46.379 56.832 44.0004 48.5651 43.6223 48.2534C43.4275 48.0927 42.9177 47.9881 41.9927 47.9187C40.7102 47.8224 40.637 47.7993 40.4454 47.4286C40.2262 47.0046 39.9758 46.8642 39.4394 46.8642C38.5497 46.8642 37.8477 46.1656 37.4185 44.8529C37.0887 43.8442 36.7484 43.4771 36.1427 43.4771C35.9445 43.4771 35.6464 43.5723 35.4802 43.6886ZM36.4308 47.7886C36.5806 47.9694 36.5714 48.0482 36.3774 48.2422C36.1585 48.4613 36.1269 48.4613 35.9079 48.2422C35.714 48.0482 35.7048 47.9694 35.8546 47.7886C35.9545 47.6683 36.0841 47.5698 36.1427 47.5698C36.2012 47.5698 36.3309 47.6683 36.4308 47.7886ZM47.7549 48.3594C47.4016 48.7128 47.3921 48.7669 47.4795 49.9056C47.6691 52.3734 48.63 54.4178 50.4611 56.2497C51.7441 57.5332 52.9208 58.274 54.5526 58.8253L55.6812 59.2065L62.8406 59.2533L70 59.3V58.1627V57.0255H63.3922C57.2493 57.0255 56.7069 57.0056 55.6827 56.7436C54.2635 56.3805 53.0313 55.6846 52.0252 54.6779C51.1021 53.7547 50.6196 52.9882 50.1552 51.7083C49.5612 50.0713 48.3557 50.2513 59.9133 50.2513H70V49.1222V47.9932H59.0606H48.121L47.7549 48.3594ZM31.2052 49.4721C34.5235 49.7069 34.3619 49.6321 34.8739 51.1712C35.1964 52.1406 35.5459 52.5093 36.1427 52.5093C36.7322 52.5093 37.0893 52.1394 37.403 51.204C37.8581 49.8468 37.6812 49.9306 39.8478 50.0455C40.8982 50.1012 41.8333 50.1936 41.9257 50.2507C42.0999 50.3584 43.6634 55.6173 43.5538 55.7269C43.4996 55.7813 36.7249 55.4118 30.9935 55.042C29.9073 54.9719 28.7756 54.9132 28.4787 54.9115C28.0725 54.9092 27.8366 54.8064 27.5264 54.496L27.1141 54.0835V51.6734V49.2634L27.7136 49.2655C28.0434 49.2666 29.6146 49.3596 31.2052 49.4721ZM25.7378 60.9072C26.8788 61.4441 28.3328 61.7668 32.1221 62.3244C33.5187 62.5301 34.7408 62.7217 34.8378 62.7505C34.9699 62.7897 35.0141 63.4069 35.0141 65.2129C35.0141 67.5836 35.0085 67.6286 34.6678 67.9693L34.3216 68.3158H29.3712H24.4209L24.0747 67.9693L23.7283 67.623V63.6482V59.6735L24.2212 60.0496C24.4924 60.2565 25.1749 60.6425 25.7378 60.9072Z" fill="white"/>
<path fill-rule="evenodd" clip-rule="evenodd" d="M7.14596 17.8559C6.95551 18.0464 6.79962 18.3188 6.79962 18.4612C6.79962 18.895 6.38134 20.3671 6.08058 20.9922C5.39102 22.4248 4.01105 23.6384 2.4989 24.1418C1.52536 24.4659 1.15674 24.8149 1.15674 25.4126C1.15674 25.9944 1.5248 26.3644 2.33906 26.6012C4.60906 27.2614 6.33959 29.3961 6.74785 32.0395C7.01166 33.7478 8.84475 33.7478 9.10855 32.0395C9.51681 29.3961 11.2473 27.2614 13.5173 26.6012C14.3316 26.3644 14.6997 25.9944 14.6997 25.4126C14.6997 24.8149 14.331 24.4659 13.3575 24.1418C11.8454 23.6384 10.4654 22.4248 9.77582 20.9922C9.47506 20.3671 9.05678 18.895 9.05678 18.4612C9.05678 18.046 8.42054 17.5094 7.9282 17.5094C7.65339 17.5094 7.36419 17.6374 7.14596 17.8559ZM8.39874 23.0826C8.61868 23.4309 9.21513 24.0977 9.72412 24.5642L10.6494 25.4125L9.72412 26.2608C9.21513 26.7272 8.61868 27.3941 8.39874 27.7424C8.17881 28.0907 7.96706 28.3756 7.92827 28.3756C7.88947 28.3756 7.67773 28.0907 7.45779 27.7424C7.23786 27.3941 6.64141 26.7272 6.13242 26.2608L5.20713 25.4125L6.13242 24.5642C6.64141 24.0977 7.23786 23.4309 7.45779 23.0826C7.67773 22.7343 7.88947 22.4493 7.92827 22.4493C7.96706 22.4493 8.17881 22.7343 8.39874 23.0826Z" fill="#DB3138"/>
</svg>
