<svg width="70" height="57" viewBox="0 0 70 57" fill="none" xmlns="http://www.w3.org/2000/svg">
<path fill-rule="evenodd" clip-rule="evenodd" d="M51.7938 2.71761C48.5475 4.75885 47.5886 5.29507 46.8255 5.49618L45.8799 5.7455L40.7897 5.12588C35.08 4.43096 34.2524 4.42231 31.8589 5.03242C31.1034 5.22501 29.9927 5.62807 29.3908 5.92802C28.7889 6.22797 25.4504 8.31345 21.9718 10.5623C15.4775 14.7611 15.1352 15.0266 14.885 16.0609C14.8327 16.2776 14.5568 16.6052 14.2425 16.824C13.9395 17.0349 13.4993 17.4995 13.2642 17.8562C12.4967 19.0204 12.4194 19.5447 12.4194 23.5782V27.2398H6.20968H0V28.3744V29.5089H18.1468C28.1276 29.5089 36.2692 29.5567 36.2393 29.6153C35.2089 31.6313 34.6016 33.2885 34.1992 35.1818C33.8453 36.8469 33.8508 40.4449 34.2098 42.1253C35.8159 49.643 41.5808 55.2661 48.9613 56.5137C58.937 58.2001 68.3048 51.2827 69.7978 41.1279C70.3664 37.261 69.6829 33.6284 67.6317 29.6153C67.6018 29.5567 68.1224 29.5089 68.7887 29.5089H70V28.3744V27.2398H68.0288H66.0578L64.8592 25.9903C61.2511 22.2291 56.2231 20.2103 51.1593 20.4895C50.2278 20.5409 49.2594 20.6201 49.0071 20.6655C48.5745 20.7435 48.5484 20.7244 48.5484 20.3291C48.5484 19.9585 48.6178 19.8893 49.1482 19.7318C50.1941 19.4209 51.8292 18.4789 52.9234 17.5569C53.5055 17.0664 55.8553 15.4929 58.1452 14.0602C60.435 12.6275 62.3864 11.3842 62.4816 11.2972C62.6163 11.1747 62.5274 10.9289 62.0845 10.1981L61.5139 9.25685L59.8648 10.2886C58.9578 10.8562 56.9773 12.0947 55.4637 13.0409C53.9501 13.9872 52.3685 15.0609 51.9489 15.4269C50.6964 16.5197 49.4554 17.259 48.1538 17.6877C47.0279 18.0586 46.7606 18.0912 44.9496 18.0794C43.2929 18.0685 42.6204 17.9918 40.7863 17.6037C38.9345 17.212 38.1655 17.1254 35.7762 17.0389C34.2238 16.9826 32.786 16.8658 32.5812 16.7793C31.8698 16.4791 30.7661 15.2984 30.7661 14.8375C30.7661 14.7945 32.4808 14.7595 34.5766 14.7595H38.3871V13.6249V12.4904H33.7243H29.0614L24.1122 15.2495C18.8992 18.1557 18.2566 18.4235 17.509 18.0018C17.0076 17.719 16.8158 17.1116 17.0813 16.6472C17.278 16.3031 28.7439 8.77352 30.2016 8.03123C31.5627 7.33815 33.6566 6.82107 35.1318 6.81355C35.5638 6.81143 38.1218 7.08004 40.8161 7.41062C47.6016 8.24325 47.0708 8.36423 53.0786 4.61589C55.0502 3.38573 56.7418 2.30761 56.8377 2.21982C56.9738 2.09544 56.8929 1.86584 56.4688 1.1729C56.1701 0.684606 55.9011 0.263397 55.8711 0.236735C55.8411 0.210073 54.0063 1.32649 51.7938 2.71761ZM13.0544 2.44872C12.6759 2.66443 12.6131 2.77292 12.2686 3.80482C11.9134 4.86862 11.3401 5.49674 10.6145 5.61743C9.7331 5.76379 9.34613 5.97284 9.17141 6.39702C8.82875 7.2281 9.32425 7.84346 10.4818 8.02456C11.3091 8.15405 11.8718 8.7548 12.2683 9.93206C12.6284 11.0008 12.9476 11.3558 13.5484 11.3558C14.1444 11.3558 14.4951 10.9851 14.816 10.0163C14.9825 9.5134 15.2524 8.93123 15.4157 8.72261C15.7493 8.29658 16.461 7.95209 17.0079 7.95209C17.5143 7.95209 18.0645 7.36127 18.0645 6.81752C18.0645 6.23421 17.5157 5.68295 16.9349 5.68295C15.9493 5.68295 15.2854 5.03625 14.816 3.61875C14.4118 2.39823 13.8258 2.00907 13.0544 2.44872ZM13.8256 6.59869C13.9602 6.76165 13.9536 6.86659 13.7942 7.09521C13.593 7.38396 13.5913 7.38396 13.3391 7.10386C13.1321 6.87383 13.1184 6.78377 13.2639 6.60749C13.4861 6.33831 13.6089 6.33632 13.8256 6.59869ZM5.12002 13.7961C4.93867 13.8842 4.70778 14.2236 4.57173 14.6021C3.90561 16.4558 3.5995 16.8026 2.4356 17.021C1.75748 17.1483 1.12903 17.6708 1.12903 18.1072C1.12903 18.5545 1.5623 19.1529 1.94306 19.2313C3.49788 19.5515 3.88034 19.8757 4.36413 21.2833C4.71653 22.3084 5.06724 22.7015 5.62935 22.7015C6.24129 22.7015 6.58946 22.338 6.91278 21.362C7.07931 20.8591 7.34915 20.2769 7.51244 20.0683C7.84607 19.6423 8.55778 19.2978 9.10466 19.2978C9.61103 19.2978 10.1613 18.707 10.1613 18.1632C10.1613 17.5799 9.61244 17.0287 9.03169 17.0287C8.04605 17.0287 7.38218 16.3819 6.91278 14.9644C6.5052 13.7336 5.96919 13.3843 5.12002 13.7961ZM28.6169 15.7257C28.6527 15.8338 28.5043 15.8925 28.2022 15.8895C27.7561 15.8853 27.7461 15.8742 28.0085 15.675C28.3106 15.4454 28.5299 15.4637 28.6169 15.7257ZM5.92234 17.9444C6.05698 18.1073 6.05034 18.2123 5.89101 18.4409C5.68976 18.7297 5.68806 18.7297 5.43587 18.4496C5.22883 18.2195 5.21514 18.1295 5.36065 17.9532C5.58292 17.684 5.70571 17.682 5.92234 17.9444ZM31.429 18.6873L32.4841 19.2113L35.4708 19.3145C38.0228 19.4029 38.7556 19.4819 40.504 19.8571C41.8834 20.1531 43.1599 20.3256 44.4204 20.3861L46.2903 20.476V20.9353C46.2903 21.318 46.2258 21.4105 45.9022 21.4912C45.1071 21.6895 42.6515 22.9853 41.4784 23.8257C40.8111 24.3038 39.7076 25.2675 39.0261 25.9674L37.787 27.2398H26.2322H14.6774V23.6162C14.6774 20.5501 14.7127 19.9231 14.907 19.5389C15.2202 18.92 15.2202 18.92 15.4634 19.2687C15.8393 19.8082 16.8707 20.3115 17.7673 20.3932C18.8962 20.496 20.134 20.0962 22.0161 19.0205L23.498 18.1737L26.936 18.1685L30.3739 18.1632L31.429 18.6873ZM35 21.5669V22.7015H36.129H37.2581V21.5669V20.4324H36.129H35V21.5669ZM54.4085 22.9101C60.9931 23.9834 66.0574 28.9287 67.4838 35.6781C67.716 36.7766 67.716 40.3944 67.4838 41.4928C66.1013 48.035 61.3389 52.8208 54.8286 54.2101C53.7356 54.4434 50.1354 54.4434 49.0423 54.2101C44.1371 53.1633 40.2017 50.2361 37.995 45.9927C35.5515 41.2943 35.5154 36.1103 37.8927 31.3535C40.9194 25.2975 47.7212 21.8202 54.4085 22.9101ZM20.3226 24.9706V26.1052H21.4516H22.5806V24.9706V23.8361H21.4516H20.3226V24.9706Z" fill="white"/>
<path fill-rule="evenodd" clip-rule="evenodd" d="M41.0657 30.9993C41.6685 29.7764 42.8221 28.8283 44.1034 28.503C44.3363 28.4438 46.4638 28.4069 48.8312 28.421C52.9899 28.4457 53.1573 28.4573 53.7751 28.7666C54.7807 29.2701 55.3748 29.8425 55.8977 30.8114L56.3816 31.7084L56.4283 34.8371L56.4751 37.9658L56.9793 37.5015C57.8616 36.6894 58.6355 36.3973 59.9099 36.3949C61.2229 36.3923 61.9997 36.6825 62.922 37.5198C64.1648 38.6481 64.5313 40.1536 64.2206 42.8541C63.8252 46.2907 63.2652 47.4717 61.6161 48.346L60.8978 48.7269H52.43H43.9623L43.0696 48.2406C42.1054 47.7152 41.5358 47.1181 41.0348 46.1077C40.7174 45.4672 40.7163 45.4418 40.7163 38.5867V31.7084L41.0657 30.9993ZM61.8836 43.338C62.3036 40.5308 62.0665 39.4392 60.9153 38.8792C60.2693 38.5649 59.6944 38.5216 59.1366 38.7453C58.5859 38.9661 58.288 39.3026 57.8332 40.2179C57.0945 41.7044 56.7606 41.9572 54.1744 42.9897C53.3702 43.3106 52.5703 43.7062 52.3969 43.8684C51.6928 44.527 51.9031 45.859 52.7834 46.3165C53.1547 46.5096 53.7494 46.5362 56.8725 46.5002L60.5269 46.4581L60.9561 46.0447C61.4801 45.5399 61.6116 45.1562 61.8836 43.338ZM53.152 31.0072C53.3662 31.1681 53.6724 31.4757 53.8324 31.691C54.1087 32.0625 54.1255 32.2958 54.1646 36.3085L54.2057 40.5348L53.0356 41.0044C51.4689 41.6332 50.9079 42.0036 50.4004 42.7448C49.709 43.7547 49.4972 45.2485 49.8979 46.2881C49.9916 46.5314 49.8493 46.5425 47.1657 46.5008C44.0647 46.4527 43.9692 46.4278 43.2652 45.4807C42.9834 45.1016 42.9729 44.8949 42.9322 38.9657C42.9091 35.5977 42.9275 32.6366 42.9731 32.3853C43.0762 31.8175 43.6686 31.0933 44.2373 30.8402C44.5724 30.691 45.5646 30.656 48.7152 30.6816C52.5553 30.7131 52.7825 30.7298 53.152 31.0072Z" fill="#DB3138"/>
</svg>
