<svg width="57" height="70" viewBox="0 0 57 70" fill="none" xmlns="http://www.w3.org/2000/svg">
<path fill-rule="evenodd" clip-rule="evenodd" d="M2.27388 0.178748C1.58116 0.397092 0.399675 1.6205 0.187258 2.33947C-0.0624194 3.18462 -0.0624194 66.8097 0.187258 67.6548C0.416329 68.4301 1.58554 69.5993 2.36082 69.8284C2.8057 69.9598 7.94463 70 24.3062 70H45.6705L51.0711 64.5993L56.4719 59.1987V31.0596C56.4719 9.72903 56.4312 2.78491 56.304 2.36036C56.2117 2.05239 55.8617 1.49502 55.5261 1.12171C54.4209 -0.107626 56.8774 -0.00755764 28.1833 0.00867352C10.0846 0.0189768 2.6256 0.0679526 2.27388 0.178748ZM53.8671 2.59903L54.2136 2.94539V30.2626V57.5796H50.5956C48.1676 57.5796 46.7865 57.6361 46.3967 57.7513C45.6214 57.9803 44.4522 59.1495 44.2231 59.9248C44.1079 60.3147 44.0515 61.6957 44.0515 64.1238V67.7418H23.5092H2.96674L2.62038 67.3953L2.27388 67.0489V34.9971V2.94539L2.62038 2.59903L2.96674 2.25253H28.2437H53.5207L53.8671 2.59903ZM20.975 4.70837C19.2559 5.14788 18.8881 5.40363 14.7648 9.02671C12.9794 10.5956 11.328 11.9994 11.0952 12.1463C10.8623 12.2934 10.4494 12.4145 10.1778 12.4155C9.55532 12.4179 8.39825 12.9542 7.86319 13.4882C7.63821 13.7129 7.30032 14.2296 7.11232 14.6366C6.77866 15.3591 6.77175 15.4489 6.81578 18.4474C6.86053 21.4938 6.86405 21.5241 7.25388 22.264C7.7754 23.2538 8.60446 24.0352 9.54812 24.4263C10.0495 24.6342 10.3189 24.8288 10.3189 24.9832C10.3189 25.1138 10.5419 25.6662 10.8143 26.2109C12.8896 30.3591 18.7546 30.3643 20.8281 26.2196C21.1029 25.6701 21.3279 25.1338 21.3279 25.0278C21.3279 24.868 22.318 24.835 27.1146 24.835C31.9113 24.835 32.9014 24.868 32.9014 25.0278C32.9014 25.1338 33.1244 25.6662 33.3968 26.2109C35.4721 30.3591 41.3371 30.3643 43.4106 26.2196C43.6854 25.6701 43.9103 25.1338 43.9103 25.0278C43.9103 24.8775 44.2259 24.835 45.3407 24.835C46.1274 24.835 47.0324 24.7578 47.3519 24.6634C48.1272 24.4343 49.2964 23.2651 49.5255 22.4898C49.6384 22.1075 49.6971 20.7981 49.6971 18.6594C49.6971 15.7729 49.6694 15.3763 49.4501 15.1099C49.2649 14.8849 48.2178 14.5288 45.2676 13.6875C43.103 13.0701 41.319 12.5472 41.3031 12.5252C41.2871 12.5031 40.3269 11.1524 39.1696 9.52367C38.0121 7.89476 36.8206 6.31653 36.5218 6.01646C36.223 5.7164 35.5561 5.27068 35.0398 5.02608L34.1011 4.58135L27.8909 4.55467C23.2366 4.53463 21.5039 4.57316 20.975 4.70837ZM25.9855 9.52127V12.2735H20.2391C15.357 12.2735 14.5238 12.2443 14.6993 12.0794C15.9042 10.9479 19.9132 7.55137 20.2526 7.37438C21.1709 6.89577 21.8316 6.7878 23.9037 6.77848L25.9855 6.76903V9.52127ZM34.1011 7.10452C34.968 7.5134 35.0486 7.60274 36.9181 10.227L38.4263 12.3441L34.3584 12.3871C32.1209 12.4107 29.8299 12.3894 29.267 12.3397L28.2437 12.2494V9.50927V6.76903L30.8196 6.77044C33.2305 6.77171 33.4405 6.79302 34.1011 7.10452ZM42.5862 15.262L44.5786 15.8335L44.3504 16.2765C43.9967 16.9626 44.0508 18.2913 44.4592 18.9523C44.9304 19.7147 45.6963 20.1782 46.6472 20.2763L47.4389 20.358V21.1209C47.4389 21.7428 47.3748 21.948 47.0924 22.2303C46.7706 22.5522 46.6454 22.5768 45.3281 22.5768C44.224 22.5768 43.9103 22.5341 43.9103 22.384C43.9103 22.278 43.6873 21.7456 43.4149 21.2009C42.8128 19.9976 41.9659 19.1822 40.6895 18.5776C39.8369 18.1736 39.6184 18.1308 38.4059 18.1308C37.1933 18.1308 36.9748 18.1736 36.1222 18.5776C34.8459 19.1822 33.9989 19.9976 33.3968 21.2009C33.1244 21.7456 32.9014 22.278 32.9014 22.384C32.9014 22.5437 31.9113 22.5768 27.1146 22.5768C22.318 22.5768 21.3279 22.5437 21.3279 22.384C21.3279 22.278 21.1049 21.7456 20.8325 21.2009C20.2303 19.9976 19.3834 19.1822 18.107 18.5776C17.2544 18.1736 17.0359 18.1308 15.8234 18.1308C14.6108 18.1308 14.3924 18.1736 13.5397 18.5776C13.0213 18.8231 12.3156 19.2835 11.9718 19.6004C11.3532 20.1706 10.46 21.628 10.46 22.0673C10.46 22.3683 10.2914 22.3539 9.86188 22.016C9.32738 21.5956 9.04863 20.877 9.04863 19.9194V19.069L9.80175 18.7241C11.1849 18.0909 12.1764 16.7306 12.385 15.1802L12.4782 14.4879L26.5358 14.5891L40.5935 14.6904L42.5862 15.262ZM10.1237 15.1197C10.0291 15.5927 9.40868 16.5077 9.18257 16.5077C9.00981 16.5077 9.01024 15.9214 9.18328 15.4662C9.2904 15.1845 9.88093 14.7083 10.1601 14.6785C10.1892 14.6754 10.1728 14.874 10.1237 15.1197ZM16.9525 16.9311V18.0603H18.6462H20.3399V16.9311V15.802H18.6462H16.9525V16.9311ZM30.502 16.9311V18.0603H32.1957H33.8894V16.9311V15.802H32.1957H30.502V16.9311ZM47.4389 17.4957C47.4389 18.0199 47.4106 18.0603 47.0437 18.0603C46.6018 18.0603 46.3097 17.8356 46.3097 17.4957C46.3097 17.1558 46.6018 16.9311 47.0437 16.9311C47.4106 16.9311 47.4389 16.9715 47.4389 17.4957ZM16.8656 20.4901C18.0785 20.8485 19.2107 22.4011 19.2107 23.7059C19.2107 25.4548 17.5722 27.0933 15.8234 27.0933C14.0745 27.0933 12.436 25.4548 12.436 23.7059C12.436 22.8188 12.7589 22.1031 13.4898 21.3707C14.4799 20.3785 15.5463 20.1003 16.8656 20.4901ZM39.448 20.4901C40.661 20.8485 41.7932 22.4011 41.7932 23.7059C41.7932 25.4548 40.1547 27.0933 38.4059 27.0933C36.657 27.0933 35.0185 25.4548 35.0185 23.7059C35.0185 22.8188 35.3414 22.1031 36.0722 21.3707C37.0623 20.3785 38.1288 20.1003 39.448 20.4901ZM14.6943 23.7059V24.835H15.8234H16.9525V23.7059V22.5768H15.8234H14.6943V23.7059ZM37.2767 23.7059V24.835H38.4059H39.535V23.7059V22.5768H38.4059H37.2767V23.7059ZM38.2647 32.386L36.7878 33.868H33.4267H30.0657L29.7194 34.2145L29.3729 34.5609V38.3845V42.2082L29.7194 42.5545L30.0657 42.901H33.8894H37.713L38.0594 42.5545L38.4059 42.2082V38.8472V35.486L39.8878 34.0092C40.7029 33.1969 41.3698 32.4652 41.3698 32.3832C41.3698 32.1963 40.0686 30.9041 39.8805 30.9041C39.8041 30.9041 39.077 31.571 38.2647 32.386ZM18.0816 36.1263V37.2554H22.5981H27.1146V36.1263V34.9971H22.5981H18.0816V36.1263ZM42.9224 36.1263V37.2554H47.4389H51.9554V36.1263V34.9971H47.4389H42.9224V36.1263ZM33.8487 36.8015C33.483 37.173 33.1906 37.5381 33.1989 37.613C33.2072 37.688 33.5587 38.0626 33.9797 38.4453L34.7452 39.1413L35.4464 38.4507L36.1476 37.76V39.2014V40.6428H33.8894H31.6311V38.3845V36.1263H33.0724H34.5139L33.8487 36.8015ZM15.8234 40.6428V41.7719H21.469H27.1146V40.6428V39.5136H21.469H15.8234V40.6428ZM40.6641 40.6428V41.7719H46.3097H51.9554V40.6428V39.5136H46.3097H40.6641V40.6428ZM13.424 43.6773L11.9471 45.1593H8.58597H5.22499L4.87863 45.5058L4.53213 45.8521V49.6758V53.4994L4.87863 53.8458L5.22499 54.1923H9.04863H12.8723L13.2186 53.8458L13.5651 53.4994V50.1384V46.7773L15.0471 45.3004C15.8622 44.4881 16.5291 43.7565 16.5291 43.6745C16.5291 43.4876 15.2279 42.1953 15.0398 42.1953C14.9634 42.1953 14.2362 42.8622 13.424 43.6773ZM38.2647 43.6773L36.7878 45.1593H33.4267H30.0657L29.7194 45.5058L29.3729 45.8521V49.6758V53.4994L29.7194 53.8458L30.0657 54.1923H33.8894H37.713L38.0594 53.8458L38.4059 53.4994V50.1384V46.7773L39.8878 45.3004C40.7029 44.4881 41.3698 43.7565 41.3698 43.6745C41.3698 43.4876 40.0686 42.1953 39.8805 42.1953C39.8041 42.1953 39.077 42.8622 38.2647 43.6773ZM18.0816 47.4175V48.5466H22.5981H27.1146V47.4175V46.2884H22.5981H18.0816V47.4175ZM42.9224 47.4175V48.5466H47.4389H51.9554V47.4175V46.2884H47.4389H42.9224V47.4175ZM9.00798 48.0927C8.64228 48.4642 8.34984 48.8293 8.35817 48.9043C8.3665 48.9792 8.71793 49.3538 9.13896 49.7366L9.9045 50.4326L10.6057 49.742L11.3069 49.0512V50.4927V51.934H9.04863H6.79038V49.6758V47.4175H8.23171H9.67317L9.00798 48.0927ZM33.8487 48.0927C33.483 48.4642 33.1906 48.8293 33.1989 48.9043C33.2072 48.9792 33.5587 49.3538 33.9797 49.7366L34.7452 50.4326L35.4464 49.742L36.1476 49.0512V50.4927V51.934H33.8894H31.6311V49.6758V47.4175H33.0724H34.5139L33.8487 48.0927ZM15.8234 51.934V53.0631H21.469H27.1146V51.934V50.8049H21.469H15.8234V51.934ZM40.6641 51.934V53.0631H46.3097H51.9554V51.934V50.8049H46.3097H40.6641V51.934ZM13.424 54.9685L11.9471 56.4505H8.58597H5.22499L4.87863 56.797L4.53213 57.1434V60.967V64.7906L4.87863 65.137L5.22499 65.4835H9.04863H12.8723L13.2186 65.137L13.5651 64.7906V61.4297V58.0685L15.0471 56.5916C15.8622 55.7794 16.5291 55.0477 16.5291 54.9657C16.5291 54.7788 15.2279 53.4866 15.0398 53.4866C14.9634 53.4866 14.2362 54.1534 13.424 54.9685ZM18.0816 58.7088V59.8379H22.5981H27.1146V58.7088V57.5796H22.5981H18.0816V58.7088ZM9.00798 59.384C8.64228 59.7555 8.34984 60.1206 8.35817 60.1955C8.3665 60.2705 8.71793 60.6451 9.13896 61.0278L9.9045 61.7238L10.6057 61.0332L11.3069 60.3425V61.7839V63.2253H9.04863H6.79038V60.967V58.7088H8.23171H9.67317L9.00798 59.384ZM52.5199 59.8744C52.5199 59.8945 51.1226 61.307 49.4148 63.0135L46.3097 66.1162V63.3235C46.3097 59.5751 46.0495 59.8379 49.7613 59.8379C51.2786 59.8379 52.5199 59.8543 52.5199 59.8744ZM15.8234 63.2253V64.3544H21.469H27.1146V63.2253V62.0961H21.469H15.8234V63.2253Z" fill="white"/>
<path fill-rule="evenodd" clip-rule="evenodd" d="M13.4238 32.3858L11.9469 33.8678H8.58582H5.22484L4.87848 34.2143L4.53198 34.5606V38.3843V42.2079L4.87848 42.5543L5.22484 42.9008H9.04848H12.8721L13.2185 42.5543L13.565 42.2079V38.8469V35.4858L15.047 34.0089C15.862 33.1966 16.5289 32.465 16.5289 32.383C16.5289 32.1961 15.2278 30.9038 15.0396 30.9038C14.9633 30.9038 14.2361 31.5707 13.4238 32.3858ZM9.00783 36.8012C8.64214 37.1727 8.34969 37.5378 8.35802 37.6128C8.36635 37.6877 8.71779 38.0623 9.13881 38.4451L9.90436 39.1411L10.6055 38.4505L11.3067 37.7597V39.2012V40.6425H9.04848H6.79023V38.3843V36.126H8.23156H9.67303L9.00783 36.8012Z" fill="#DB3138"/>
<path fill-rule="evenodd" clip-rule="evenodd" d="M13.4238 43.6828L11.9469 45.1648H8.58582H5.22484L4.87848 45.5113L4.53198 45.8577V49.6813V53.505L4.87848 53.8513L5.22484 54.1978H9.04848H12.8721L13.2185 53.8513L13.565 53.505V50.144V46.7829L15.047 45.306C15.862 44.4937 16.5289 43.762 16.5289 43.68C16.5289 43.4931 15.2278 42.2009 15.0396 42.2009C14.9633 42.2009 14.2361 42.8678 13.4238 43.6828ZM9.00783 48.0983C8.64214 48.4698 8.34969 48.8349 8.35802 48.9098C8.36635 48.9848 8.71779 49.3594 9.13881 49.7421L9.90436 50.4381L10.6055 49.7475L11.3067 49.0568V50.4982V51.9396H9.04848H6.79023V49.6813V47.4231H8.23156H9.67303L9.00783 48.0983Z" fill="#DB3138"/>
<path fill-rule="evenodd" clip-rule="evenodd" d="M13.4241 54.9743L11.9472 56.4563H8.58607H5.22509L4.87873 56.8028L4.53223 57.1491V60.9728V64.7964L4.87873 65.1428L5.22509 65.4893H9.04872H12.8724L13.2187 65.1428L13.5652 64.7964V61.4354V58.0743L15.0472 56.5974C15.8623 55.7851 16.5292 55.0535 16.5292 54.9715C16.5292 54.7846 15.228 53.4923 15.0399 53.4923C14.9635 53.4923 14.2363 54.1592 13.4241 54.9743ZM9.00799 59.3898C8.6423 59.7613 8.34985 60.1264 8.35818 60.2014C8.36651 60.2763 8.71795 60.6509 9.13897 61.0337L9.90452 61.7296L10.6057 61.039L11.3069 60.3483V61.7898V63.2311H9.04864H6.79039V60.9728V58.7146H8.23172H9.67319L9.00799 59.3898Z" fill="#DB3138"/>
<path fill-rule="evenodd" clip-rule="evenodd" d="M38.2363 43.6828L36.7594 45.1648H33.3983H30.0373L29.691 45.5113L29.3445 45.8577V49.6813V53.505L29.691 53.8513L30.0373 54.1978H33.861H37.6846L38.031 53.8513L38.3775 53.505V50.144V46.7829L39.8595 45.306C40.6745 44.4937 41.3414 43.762 41.3414 43.68C41.3414 43.4931 40.0403 42.2009 39.8521 42.2009C39.7758 42.2009 39.0486 42.8678 38.2363 43.6828ZM33.8203 48.0983C33.4546 48.4698 33.1622 48.8349 33.1705 48.9098C33.1788 48.9848 33.5303 49.3594 33.9513 49.7421L34.7169 50.4381L35.418 49.7475L36.1192 49.0568V50.4982V51.9396H33.861H31.6027V49.6813V47.4231H33.0441H34.4855L33.8203 48.0983Z" fill="#DB3138"/>
<path fill-rule="evenodd" clip-rule="evenodd" d="M38.2363 32.3919L36.7594 33.8739H33.3983H30.0373L29.691 34.2204L29.3445 34.5667V38.3904V42.214L29.691 42.5604L30.0373 42.9069H33.861H37.6846L38.031 42.5604L38.3775 42.214V38.853V35.4919L39.8595 34.015C40.6745 33.2027 41.3414 32.4711 41.3414 32.3891C41.3414 32.2022 40.0403 30.9099 39.8521 30.9099C39.7758 30.9099 39.0486 31.5768 38.2363 32.3919ZM33.8203 36.8073C33.4546 37.1788 33.1622 37.5439 33.1705 37.6189C33.1788 37.6938 33.5303 38.0684 33.9513 38.4512L34.7169 39.1472L35.418 38.4566L36.1192 37.7658V39.2073V40.6486H33.861H31.6027V38.3904V36.1321H33.0441H34.4855L33.8203 36.8073Z" fill="#DB3138"/>
</svg>
