<svg width="70" height="46" viewBox="0 0 70 46" fill="none" xmlns="http://www.w3.org/2000/svg">
<path fill-rule="evenodd" clip-rule="evenodd" d="M15.0028 0.488756C14.8122 0.679353 14.6562 0.926987 14.6562 1.03923C14.6562 1.20653 14.2321 1.25354 12.2914 1.30141C9.63559 1.36691 9.03316 1.52109 7.7498 2.4632C6.34136 3.49709 6.20978 3.80275 2.93122 13.6489C0.109959 22.1215 -0.0576255 22.6837 0.0111307 23.4417C0.150902 24.9836 1.02398 26.2608 2.3607 26.879C2.96002 27.1563 3.28714 27.182 6.72622 27.2226C10.6714 27.2692 10.9883 27.2238 11.1804 26.5825C11.2218 26.4444 11.6724 23.1976 12.1821 19.3673C12.6916 15.537 13.1933 12.2006 13.2966 11.953C13.4001 11.7055 13.7324 11.2853 14.0351 11.0192L14.5856 10.5353L14.682 13.1392C14.8458 17.5591 15.3144 23.2149 15.7259 25.7416C15.8133 26.2777 15.8173 26.2805 16.3645 26.2005C18.2058 25.9308 18.0677 25.984 17.9843 25.5766C17.6733 24.0576 17.1438 17.8517 16.9737 13.731L16.879 11.4368H18.6395H20.4L20.5606 11.9726C20.7926 12.7473 21.6052 13.621 22.501 14.0593C23.3738 14.4864 23.6919 14.8481 23.6919 15.4135C23.6919 15.9376 23.1941 16.4312 22.3611 16.7331C21.5447 17.0291 20.6194 17.903 20.2699 18.7077C19.9847 19.3645 15.9624 37.376 15.8334 38.5735C15.5145 41.5362 17.7348 44.5441 20.6987 45.1642C21.7522 45.3846 43.7176 45.3825 44.7566 45.1619C47.7432 44.5277 49.9424 41.5496 49.6219 38.5735C49.4458 36.9394 45.436 19.2959 45.0675 18.5341C44.6531 17.6777 43.9387 17.0366 43.0357 16.7108C41.9106 16.3049 41.4578 15.4655 41.9696 14.7347C42.0831 14.5726 42.5262 14.2688 42.9542 14.0593C44.2351 13.4327 45.1518 12.067 45.1518 10.7858C45.1518 10.4423 45.227 10.3025 45.4497 10.2318C45.6136 10.1798 46.9516 9.41308 48.423 8.52815L51.0984 6.91894H60.2027H69.3069L69.6534 6.57234C69.9972 6.2287 70 6.20399 70 3.53055C70 0.857102 69.9972 0.832396 69.6534 0.488756L69.3069 0.142151H57.0111H44.7154L44.3689 0.488756C44.1783 0.679353 44.0223 0.933483 44.0223 1.05349C44.0223 1.24846 42.8208 1.27162 32.7276 1.27162C22.6345 1.27162 21.433 1.24846 21.433 1.05349C21.433 0.933483 21.277 0.679353 21.0864 0.488756C20.7427 0.144975 20.718 0.142151 18.0446 0.142151C15.3712 0.142151 15.3464 0.144975 15.0028 0.488756ZM19.1741 5.78948V9.17787H18.0446H16.9151V5.78948V2.40108H18.0446H19.1741V5.78948ZM60.9643 3.53055V4.66001H55.7257H50.4871L48.3841 5.92572L46.2812 7.19142V4.79625V2.40108H53.6228H60.9643V3.53055ZM67.7411 3.53055V4.66001H65.4821H63.2232V3.53055V2.40108H65.4821H67.7411V3.53055ZM14.6562 5.83409V8.13764L13.8444 8.47337C12.8732 8.87503 11.7436 9.95014 11.3049 10.8903C11.0415 11.455 10.9271 11.5575 10.4633 11.6443C9.01424 11.9156 7.16008 13.3069 6.40913 14.6867C6.14017 15.181 5.63177 16.9261 4.83974 20.0742C4.19538 22.6355 3.63121 24.7679 3.58603 24.8129C3.54085 24.8581 3.34475 24.8225 3.15006 24.7339C2.71874 24.5373 2.23335 23.7766 2.23265 23.2962C2.23194 22.8279 7.94492 5.70378 8.29152 5.13523C8.62754 4.5842 9.40687 3.98036 10.1028 3.73202C10.4471 3.60904 11.3364 3.54071 12.6443 3.53676L14.6562 3.53055V5.83409ZM22.5625 4.66001V5.78948H23.6919H24.8214V4.66001V3.53055H25.9509H27.0803V4.66001V5.78948H28.2098H29.3392V4.66001V3.53055H30.4687H31.5982V4.66001V5.78948H32.7276H33.8571V4.66001V3.53055H34.9866H36.116V4.66001V5.78948H37.2455H38.375V4.66001V3.53055H39.5044H40.6339V4.66001V5.78948H41.7634H42.8928V4.66001V3.53055H43.4576H44.0223V5.78948V8.04841H32.7276H21.433V5.78948V3.53055H21.9977H22.5625V4.66001ZM42.8928 10.7118C42.8928 11.2822 42.449 11.7793 41.4775 12.2972C39.8365 13.1718 39.1292 14.8557 39.7107 16.5039C40.0569 17.4848 40.5887 18.0401 41.69 18.5697C42.8513 19.1283 43.1354 19.3909 43.2617 20.023L43.3517 20.4725H32.7276H22.1036L22.1935 20.023C22.3199 19.3909 22.604 19.1283 23.7653 18.5697C24.8666 18.0401 25.3984 17.4848 25.7446 16.5039C26.3261 14.8557 25.6188 13.1718 23.9778 12.2972C23.0063 11.7793 22.5625 11.2822 22.5625 10.7118V10.3073H32.7276H42.8928V10.7118ZM10.5606 14.2252C10.5601 14.3611 10.243 16.8229 9.85597 19.696C9.46899 22.5691 9.15189 24.9357 9.15133 24.9551C9.15062 24.9744 8.42607 24.9904 7.54128 24.9904H5.93249L7.02779 20.6407C7.63022 18.2482 8.20568 16.1358 8.30649 15.9463C8.67018 15.2636 9.08539 14.8011 9.70109 14.3933C10.4272 13.9123 10.5623 13.8859 10.5606 14.2252ZM43.9294 23.0491C43.9727 23.2239 44.7792 26.8293 45.7216 31.0613C47.579 39.4029 47.6027 39.586 46.9836 40.8201C46.5629 41.6593 46.062 42.17 45.2224 42.6161L44.5164 42.9912H32.7276H20.9389L20.3577 42.6804C19.4477 42.1936 18.9078 41.6724 18.5195 40.9062C17.8461 39.5771 17.8567 39.491 19.7337 31.0613C20.6761 26.8293 21.4825 23.2239 21.5259 23.0491L21.6048 22.7315H32.7276H43.8505L43.9294 23.0491Z" fill="white"/>
<path fill-rule="evenodd" clip-rule="evenodd" d="M36.0406 26.0424C36.4315 25.6508 36.9737 25.2601 37.2454 25.1744C38.5594 24.7603 39.7157 25.0506 40.7092 26.044C41.4404 26.7752 41.7633 27.4903 41.7633 28.3783C41.7633 30.61 39.2716 32.3811 37.2943 31.5549C37.0155 31.4384 36.7663 31.3431 36.7403 31.3431C36.7145 31.3431 36.7903 31.6132 36.9089 31.9432C37.2157 32.7971 37.3101 34.3775 37.1115 35.3334C36.845 36.6151 36.0925 37.9648 35.1349 38.8781C32.4418 41.4468 28.3652 41.4098 25.7517 38.793C22.846 35.8836 23.1153 31.2695 26.3388 28.7318C28.6871 26.8832 32.1671 26.826 34.4903 28.5981L34.9865 28.9765V28.4468C34.9865 27.4907 35.2929 26.7917 36.0406 26.0424ZM34.5638 32.1197C34.1174 31.2116 33.2671 30.366 32.3747 29.9426C31.453 29.5052 29.9486 29.4109 29.0576 29.7346C25.1983 31.137 24.8927 36.3162 28.5627 38.1208C29.1478 38.4085 29.474 38.4673 30.4687 38.4637C31.4856 38.4601 31.7787 38.4023 32.3898 38.0856C33.4532 37.5346 33.8966 37.1064 34.4299 36.1153C34.8663 35.3045 34.9086 35.1195 34.9097 34.0256C34.9107 33.0349 34.8504 32.7025 34.5638 32.1197ZM39.1578 27.5958C39.3763 27.8142 39.5044 28.1036 39.5044 28.3786C39.5044 28.6537 39.3763 28.9431 39.1578 29.1615C38.9394 29.38 38.65 29.5081 38.3749 29.5081C38.0999 29.5081 37.8105 29.38 37.5921 29.1615C37.3735 28.9431 37.2455 28.6537 37.2455 28.3786C37.2455 28.1036 37.3735 27.8142 37.5921 27.5958C37.8105 27.3772 38.0999 27.2492 38.3749 27.2492C38.65 27.2492 38.9394 27.3772 39.1578 27.5958Z" fill="#DB3138"/>
</svg>
