<svg width="160" height="58" viewBox="0 0 160 58" fill="none" xmlns="http://www.w3.org/2000/svg">
<g clip-path="url(#clip0_2_500)">
<path d="M93.3227 55.8319H87.0987V34.3279C87.0987 32.2265 85.12 28.0132 80.4053 28.0132C76.864 28.0132 74.1387 31.2612 74.1387 34.6265C74.1387 37.5919 76.8427 41.2932 81.6693 41.2932C83.3333 41.2932 84.5493 40.5732 84.5493 40.5732V46.5892C84.5493 46.5892 83.0667 47.2665 80.88 47.2665C76.3947 47.2665 74.1173 45.9119 71.408 43.4319C69.152 41.3625 67.8027 36.9892 67.8027 34.5519C67.8027 32.1199 69.0667 27.9279 71.1413 25.8959C73.216 23.8692 76.1013 21.7039 80.6987 21.7039C85.296 21.7039 88.272 24.3172 90.2133 26.2585C93.28 29.3199 93.3227 35.9545 93.3227 35.9545V55.8319ZM114.016 29.3625V13.8212H120.24V16.4345C120.24 16.4345 122.624 14.5839 125.963 13.4585C129.296 12.3332 133.536 11.8799 133.536 11.8799V15.3092C133.536 15.3092 135.296 14.9892 136.96 14.8559C138.629 14.7225 140.747 14.7652 140.747 14.7652V19.1865C140.747 19.1865 139.669 19.1865 138.539 19.2292C137.419 19.2719 135.744 19.5439 135.744 19.5439L140.795 20.9839L140.843 25.7679L143.813 21.8905L148.635 23.5119L145.797 19.4052L160 1.96521V8.77054L151.211 19.7252L159.008 31.0852L145.344 26.9359L136.379 37.9865L136.325 24.1412L133.536 23.2399V25.8532C133.536 25.8532 127.984 26.1679 124.427 30.0025C119.92 34.8719 120.283 40.0559 120.283 40.0559V55.8426H114.016V40.1412C114.016 37.6612 114.304 32.4345 119.424 26.8879C123.387 22.5945 129.392 20.7972 129.392 20.7972L137.499 23.3252L137.456 34.9572L144.987 25.5812L156.528 29.3199L149.899 19.6292L158.965 8.45054V4.97321L147.2 19.4959L151.072 25.2612L144.219 23.1919L139.579 28.8665L139.531 21.7039C139.531 21.7039 133.808 19.8105 131.328 19.3145C132.891 18.8516 134.489 18.5198 136.107 18.3225C138.043 18.1412 139.531 18.1412 139.531 18.1412V15.7945C139.531 15.7945 134.347 15.7679 128.757 17.6932C124.188 19.321 120.044 21.9548 116.629 25.3999C114.869 27.2025 114.016 29.3625 114.016 29.3625V29.3625ZM104.816 13.8159H110.949V55.8426H104.816V13.8159Z" fill="white"/>
<path d="M96.3893 55.8319H102.565V33.6986C102.565 28.5092 100.443 23.3252 95.5307 18.4132C90.6187 13.4959 83.7227 12.4186 80.3413 12.4186C76.9547 12.4186 71.232 13.7732 67.8933 16.3812C64.56 18.9999 58.4267 24.0452 58.4267 34.9092C58.4267 44.0666 64.576 50.8506 69.3813 53.6239C73.1573 55.7999 76.5973 56.5572 80.9707 56.5572C84.0373 56.5572 84.5333 56.0986 84.5333 56.0986V49.7892C84.5333 49.7892 83.2213 50.2852 80.9227 50.2852C78.6293 50.2852 75.472 50.1039 71.9093 47.7626C69.7183 46.3103 67.9264 44.3318 66.6975 42.0081C65.4686 39.6844 64.8419 37.0897 64.8747 34.4612C64.8747 28.0132 68.48 23.6399 71.904 21.2986C75.3333 18.9519 79.0293 18.6852 80.7413 18.6852C82.4587 18.6852 87.4613 19.2666 91.3813 23.1919C95.3067 27.1119 96.3893 31.3039 96.3893 37.7999V55.8319ZM42.9493 37.7999C42.9493 42.3972 43.2373 43.8426 44.4053 45.0106C45.7173 46.3226 46.432 47.0906 51.0347 47.0906H58.4267V41.2239C58.4267 41.2239 55.4933 41.1812 52.3893 41.1812C49.3653 41.1812 49.2747 40.3226 49.2747 38.1572V28.2426H58.4267V22.5199H42.9493V37.7999Z" fill="white"/>
<path d="M33.632 22.5146H39.8986V39.5546C39.8986 44.0666 41.1626 45.9119 42.288 47.1279C43.4133 48.3492 45.44 50.1039 50.6293 50.1039H58.4266V55.9172C58.4266 55.9172 51.8933 55.8319 47.7013 55.8319C44.992 55.8319 40.2613 54.2532 37.1467 50.5519C34.9286 47.8383 33.6903 44.4561 33.632 40.9519V22.5146ZM42.9707 0.471886H49.2693V13.8586H58.4693V19.4959H42.9707V0.471886ZM33.632 0.466553H39.9893V19.5386H33.632V0.466553ZM30.6133 28.2426V22.4666H12.3093C9.51465 22.4666 8.90132 23.7412 8.69865 24.4079C7.97865 26.7972 12.0373 29.5012 15.328 31.9812C18.6186 34.4612 21.9306 36.9626 23.4453 38.4772C25.0666 40.0986 27.28 42.8666 25.968 46.1359C24.528 49.7466 21.056 49.9706 18.2133 49.9706H0.773315V55.8319H17.808C23.76 55.8319 27.456 54.6106 30.3893 50.0612C32.9866 46.0239 32.064 41.1546 30.7466 38.8772C28.9013 35.6772 26.1493 33.2399 23.04 31.1706C20.6027 29.5439 20 29.3626 20.1973 28.6479C20.3306 28.1519 22.128 28.2319 22.128 28.2319L30.6133 28.2426Z" fill="white"/>
<path d="M30.704 19.4693V13.7359L12.0373 13.7306C6.75733 13.7306 0 17.4266 0 25.4106C0 33.3893 7.89333 37.0746 11.36 39.8373C11.8613 40.2319 12.2133 41.2346 10.7307 41.2346H0.757333V46.9999H15.7333C21.328 46.9999 22.1867 46.6853 22.9867 44.9733C23.5573 43.7839 23.3973 42.5413 20.5547 39.9706C17.7173 37.3999 11.7707 33.0266 10.1013 31.8106C8.432 30.5946 5.14133 27.6186 5.68 24.5039C6.224 21.3946 8.112 19.5013 12.2187 19.5013C16.4747 19.5013 30.704 19.4746 30.704 19.4746" fill="white"/>
</g>
<defs>
<clipPath id="clip0_2_500">
<rect width="160" height="57.024" fill="white"/>
</clipPath>
</defs>
</svg>
