<svg width="160" height="41" viewBox="0 0 160 41" fill="none" xmlns="http://www.w3.org/2000/svg">
<g clip-path="url(#clip0_2_492)">
<path d="M15.2375 23.3983L7.28367 1.66014H0L12.1593 31.465H18.2644L30.3651 1.66014H23.2508L15.2375 23.3983ZM54.794 16.5628C54.794 21.7773 51.3194 26.0337 45.8302 26.0337C40.5635 26.0337 36.8063 21.719 36.8063 16.4527C36.8063 11.2403 40.2833 6.98345 45.717 6.98345C51.0391 6.98345 54.794 11.2985 54.794 16.5628ZM61.5717 16.4527C61.5717 7.93632 54.9072 1.04297 45.8306 1.04297C36.7533 1.04297 30.0282 8.04796 30.0282 16.5632C30.0282 25.027 36.6974 31.9175 45.717 31.9175C54.8506 31.9175 61.5717 24.9122 61.5717 16.4527V16.4527ZM91.8299 1.66014H84.7687L77.0936 23.6244L68.6872 1.66014H61.4601L73.7876 31.243C72.6665 33.8213 71.49 34.6621 69.5866 34.6621C68.1864 34.6621 66.8376 34.2128 65.6081 33.5394L63.3104 38.5829C65.3832 39.7032 67.4552 40.3754 70.3122 40.3754C75.0758 40.3754 77.7111 38.1363 80.0634 32.0818L91.8299 1.66014V1.66014ZM115.417 22.5029V22.3912C115.417 17.0683 110.542 15.106 106.227 13.7628C102.753 12.6413 99.5613 11.745 99.5613 9.618V9.50637C99.5613 7.77087 101.071 6.53612 103.706 6.53612C106.172 6.53612 109.197 7.60063 112.054 9.33573L114.744 4.51755C111.607 2.44636 107.573 1.1554 103.874 1.1554C97.9925 1.1554 93.339 4.57417 93.339 10.1802V10.2882C93.339 15.9484 98.2146 17.7405 102.584 18.9721C106.058 20.0382 109.197 20.8224 109.197 23.1196V23.2309C109.197 25.19 107.514 26.4236 104.602 26.4236C101.575 26.4236 98.1045 25.19 94.909 22.7808L91.8834 27.3757C95.5812 30.2897 100.232 31.8027 104.435 31.8027C110.6 31.8035 115.417 28.722 115.417 22.5029V22.5029Z" fill="white"/>
<path d="M123.356 2.96829C125.677 0.648316 125.677 0.648315 127.997 0.648315H152.125C153.971 0.648315 154.351 0.652701 155.591 1.82126L152.602 6.99148H119.334C119.333 6.99148 120.497 5.83209 123.356 2.96829Z" fill="white"/>
<path d="M158.448 4.67428C156.126 2.35391 155.591 1.82166 155.591 1.82166L139.542 29.5613L140.894 31.9012H142.757C145.077 31.9012 145.91 31.9012 147.397 29.5769C148.739 27.4877 159.714 8.26329 159.714 8.26329C160.473 6.69804 159.606 5.83647 158.448 4.67428Z" fill="white"/>
<path d="M126.489 6.99146H119.333C119.472 7.19678 132.334 29.5757 132.334 29.5757C133.363 31.3945 135.061 31.9 137.15 31.9H140.894L126.489 6.99146Z" fill="white"/>
<path d="M119.333 6.99146C119.333 6.99146 126.489 6.99145 132.304 17.0448L126.489 6.99146H119.333Z" fill="white"/>
<path d="M140.894 31.9013L139.542 29.5613L144.618 20.7858C144.619 20.7858 139.47 29.6897 140.894 31.9013Z" fill="white"/>
<path d="M155.591 1.82117L152.602 6.99138H137.32C137.32 6.99138 150.477 6.93636 155.591 1.82117Z" fill="white"/>
</g>
<defs>
<clipPath id="clip0_2_492">
<rect width="160" height="39.744" fill="white" transform="translate(0 0.640015)"/>
</clipPath>
</defs>
</svg>
